<svg xmlns="http://www.w3.org/2000/svg" viewBox="0 0 512 512">
  <defs>
    <linearGradient id="bg" x1="0%" y1="0%" x2="100%" y2="100%">
      <stop offset="0%" stop-color="#031117" />
      <stop offset="100%" stop-color="#030407" />
    </linearGradient>
    <linearGradient id="glow" x1="0%" y1="0%" x2="100%" y2="100%">
      <stop offset="0%" stop-color="#00ffa3" />
      <stop offset="100%" stop-color="#6dd5ff" />
    </linearGradient>
    <filter id="symbolGlow" x="-20%" y="-20%" width="140%" height="140%">
      <feDropShadow dx="0" dy="0" stdDeviation="10" flood-color="#00ffa3" flood-opacity="0.22" />
    </filter>
  </defs>
  <rect width="512" height="512" rx="120" fill="url(#bg)" />
  <circle cx="256" cy="256" r="184" fill="none" stroke="#0d2f3a" stroke-width="18" />
  <circle cx="256" cy="256" r="148" fill="none" stroke="url(#glow)" stroke-width="18" />
  <g fill="none" stroke-linecap="square" stroke-linejoin="round" filter="url(#symbolGlow)">
    <g stroke="url(#glow)" opacity="0.38">
      <path d="M184 152V380" stroke-width="52" />
      <path d="M246 96V416" stroke-width="38" />
      <path d="M312 96V416" stroke-width="38" />
      <path d="M184 168H312" stroke-width="30" />
      <path d="M184 302H312" stroke-width="30" />
      <path d="M312 170H322C376 170 408 201 408 254C408 307 376 338 322 338H312" stroke-width="38" />
    </g>
    <g stroke="#f8fafc">
      <path d="M184 152V380" stroke-width="48" />
      <path d="M246 96V416" stroke-width="34" />
      <path d="M312 96V416" stroke-width="34" />
      <path d="M184 168H312" stroke-width="26" />
      <path d="M184 302H312" stroke-width="26" />
      <path d="M312 170H322C376 170 408 201 408 254C408 307 376 338 322 338H312" stroke-width="34" />
    </g>
  </g>
</svg>
